<svg
xmlns="http://www.w3.org/2000/svg"
width="24"
height="26"
viewBox="0 0 24 26"
fill="#181820"
>
<path
    fill-rule="evenodd"
    clip-rule="evenodd"
    d="M11.3441 1.98305C11.521 1.8467 11.7395 1.76279 11.958 1.76279C12.2909 1.76279 12.6031 1.90963 12.8008 2.17185L18.7628 9.87068V16.0172L20.5421 17.8003C20.9479 18.2093 20.9479 18.8806 20.5421 19.2897C20.1363 19.6987 19.4704 19.6987 19.0646 19.2897L16.6818 16.8772V10.5944L11.1568 3.46198V3.45149C10.803 3.00047 10.8863 2.33967 11.3441 1.98305ZM23.7199 18.5167C23.5431 18.4724 23.3755 18.3804 23.237 18.2408L21.1456 16.1325C20.9063 15.8913 20.8022 15.5661 20.8438 15.262V9.10499H20.8126L14.8193 1.36421C14.6604 1.16153 14.5896 0.916494 14.6006 0.675732C13.9176 0.560172 13.2158 0.5 12.5 0.5C5.59644 0.5 0 6.09644 0 13C0 19.9036 5.59644 25.5 12.5 25.5C17.4234 25.5 21.682 22.6536 23.7199 18.5167Z"
    fill="#181820"
/>
</svg>