<svg width="110" height="28" viewBox="0 0 110 28" fill="none" xmlns="http://www.w3.org/2000/svg">
<path d="M0 24.8282V3.172H6.16193V5.54131H2.96591V22.4675H6.16193V24.8282H0Z" fill="#F9FAFD"/>
<path d="M14.2423 21.3084C13.7252 21.3084 13.2821 21.1265 12.9127 20.7629C12.5434 20.3993 12.3616 19.9561 12.3673 19.4334C12.3616 18.922 12.5434 18.4845 12.9127 18.1209C13.2821 17.7572 13.7252 17.5754 14.2423 17.5754C14.7423 17.5754 15.1769 17.7572 15.5463 18.1209C15.9213 18.4845 16.1116 18.922 16.1173 19.4334C16.1116 19.78 16.0207 20.0953 15.8446 20.3794C15.6741 20.6635 15.4468 20.8907 15.1627 21.0612C14.8843 21.226 14.5775 21.3084 14.2423 21.3084Z" fill="#F9FAFD"/>
<path d="M23.5184 3.172V24.8282H17.3564V22.4675H20.5525V5.54131H17.3564V3.172H23.5184Z" fill="#F9FAFD"/>
<path d="M31.782 22.6209V5.16631H38.3274C39.6684 5.16631 40.7934 5.39927 41.7024 5.86518C42.6172 6.33109 43.3076 6.9845 43.7735 7.82541C44.2451 8.66063 44.4809 9.63507 44.4809 10.7487C44.4809 11.868 44.2422 12.8396 43.7649 13.6635C43.2934 14.4817 42.5973 15.1152 41.6769 15.564C40.7564 16.0072 39.6257 16.2288 38.2848 16.2288H33.6229V13.6038H37.8587C38.6428 13.6038 39.2848 13.4959 39.7848 13.28C40.2848 13.0584 40.6541 12.7373 40.8928 12.3169C41.1371 11.8907 41.2593 11.368 41.2593 10.7487C41.2593 10.1294 41.1371 9.60097 40.8928 9.16347C40.6485 8.72029 40.2763 8.38506 39.7763 8.15779C39.2763 7.92484 38.6314 7.80836 37.8416 7.80836H34.9439V22.6209H31.782ZM40.799 14.7118L45.1201 22.6209H41.5916L37.3473 14.7118H40.799Z" fill="#F9FAFD"/>
<path d="M51.8629 22.8765C50.5504 22.8765 49.4168 22.6038 48.4623 22.0584C47.5134 21.5072 46.7833 20.7288 46.2719 19.7231C45.7606 18.7118 45.5049 17.5214 45.5049 16.1521C45.5049 14.8055 45.7606 13.6237 46.2719 12.6067C46.789 11.5839 47.5106 10.7885 48.4367 10.2203C49.3629 9.64643 50.4509 9.3595 51.7009 9.3595C52.5077 9.3595 53.2691 9.49018 53.985 9.75154C54.7066 10.0072 55.343 10.405 55.8941 10.9447C56.4509 11.4845 56.8884 12.172 57.2066 13.0072C57.5248 13.8368 57.6839 14.8254 57.6839 15.9731V16.9192H46.9538V14.8396H54.7265C54.7208 14.2487 54.593 13.7231 54.343 13.2629C54.093 12.797 53.7435 12.4305 53.2947 12.1635C52.8515 11.8964 52.3344 11.7629 51.7435 11.7629C51.1129 11.7629 50.5589 11.9163 50.0816 12.2231C49.6043 12.5243 49.2322 12.922 48.9651 13.4163C48.7038 13.905 48.5702 14.4419 48.5646 15.0271V16.8425C48.5646 17.6038 48.7038 18.2572 48.9822 18.8027C49.2606 19.3425 49.6498 19.7572 50.1498 20.047C50.6498 20.3311 51.235 20.4731 51.9055 20.4731C52.3543 20.4731 52.7606 20.4106 53.1242 20.2856C53.4879 20.155 53.8032 19.9646 54.0702 19.7146C54.3373 19.4646 54.539 19.155 54.6754 18.7856L57.556 19.1095C57.3742 19.8709 57.0276 20.5356 56.5163 21.1038C56.0106 21.6663 55.3629 22.1038 54.5731 22.4163C53.7833 22.7231 52.8799 22.8765 51.8629 22.8765Z" fill="#F9FAFD"/>
<path d="M69.6406 12.9902L66.8281 13.297C66.7485 13.0129 66.6093 12.7459 66.4104 12.4959C66.2173 12.2459 65.9559 12.0442 65.6264 11.8907C65.2968 11.7373 64.8934 11.6606 64.4161 11.6606C63.7741 11.6606 63.2343 11.7998 62.7968 12.0782C62.365 12.3567 62.1519 12.7175 62.1576 13.1606C62.1519 13.5413 62.2911 13.851 62.5752 14.0896C62.865 14.3282 63.3423 14.5243 64.007 14.6777L66.24 15.155C67.4786 15.422 68.3991 15.8453 69.0014 16.4248C69.6093 17.0044 69.9161 17.7629 69.9218 18.7004C69.9161 19.5243 69.6746 20.2515 69.1974 20.8822C68.7258 21.5072 68.0695 21.9959 67.2286 22.3481C66.3877 22.7004 65.4218 22.8765 64.3309 22.8765C62.7286 22.8765 61.4388 22.5413 60.4616 21.8709C59.4843 21.1947 58.9019 20.2544 58.7144 19.0498L61.7229 18.7601C61.8593 19.351 62.1491 19.797 62.5923 20.0981C63.0354 20.3993 63.6121 20.5498 64.3224 20.5498C65.0553 20.5498 65.6434 20.3993 66.0866 20.0981C66.5354 19.797 66.7599 19.4248 66.7599 18.9817C66.7599 18.6067 66.615 18.297 66.3252 18.0527C66.0411 17.8084 65.5979 17.6209 64.9957 17.4902L62.7627 17.0214C61.507 16.7601 60.5781 16.3197 59.9758 15.7004C59.3735 15.0754 59.0752 14.2856 59.0809 13.3311C59.0752 12.5243 59.294 11.8254 59.7371 11.2345C60.186 10.6379 60.8082 10.1777 61.6036 9.85381C62.4048 9.52427 63.3281 9.3595 64.3735 9.3595C65.9076 9.3595 67.115 9.6862 67.9957 10.3396C68.882 10.993 69.4303 11.8765 69.6406 12.9902Z" fill="#F9FAFD"/>
<path d="M71.4658 27.53V9.52995H74.4999V11.6947H74.6789C74.838 11.3765 75.0624 11.0385 75.3522 10.6805C75.642 10.3169 76.034 10.0072 76.5283 9.75154C77.0227 9.49018 77.6533 9.3595 78.4204 9.3595C79.4317 9.3595 80.3437 9.61802 81.1562 10.1351C81.9744 10.6464 82.6221 11.405 83.0994 12.4106C83.5823 13.4106 83.8238 14.6379 83.8238 16.0925C83.8238 17.53 83.588 18.7515 83.1164 19.7572C82.6448 20.7629 82.0028 21.53 81.1903 22.0584C80.3778 22.5868 79.4573 22.851 78.4289 22.851C77.6789 22.851 77.0567 22.726 76.5624 22.476C76.0681 22.226 75.6704 21.9248 75.3692 21.5726C75.0738 21.2146 74.8437 20.8765 74.6789 20.5584H74.5511V27.53H71.4658ZM74.4914 16.0754C74.4914 16.922 74.6107 17.6635 74.8494 18.2998C75.0937 18.9362 75.4431 19.4334 75.8977 19.7913C76.3579 20.1436 76.9147 20.3197 77.5681 20.3197C78.2499 20.3197 78.821 20.1379 79.2812 19.7743C79.7414 19.405 80.088 18.9021 80.321 18.2657C80.5596 17.6237 80.6789 16.8936 80.6789 16.0754C80.6789 15.2629 80.5624 14.5413 80.3295 13.9106C80.0965 13.28 79.7499 12.7856 79.2897 12.4277C78.8295 12.0697 78.2556 11.8907 77.5681 11.8907C76.909 11.8907 76.3494 12.064 75.8891 12.4106C75.4289 12.7572 75.0795 13.243 74.8408 13.868C74.6079 14.493 74.4914 15.2288 74.4914 16.0754Z" fill="#F9FAFD"/>
<path d="M89.233 22.8851C88.4034 22.8851 87.6563 22.7373 86.9915 22.4419C86.3324 22.1407 85.8097 21.6976 85.4233 21.1123C85.0426 20.5271 84.8523 19.8055 84.8523 18.9476C84.8523 18.2089 84.9887 17.5981 85.2614 17.1152C85.5341 16.6322 85.9063 16.2459 86.3779 15.9561C86.8495 15.6663 87.3807 15.4476 87.9716 15.2998C88.5682 15.1464 89.1847 15.0356 89.8211 14.9675C90.5881 14.8879 91.2103 14.8169 91.6875 14.7544C92.1648 14.6862 92.5114 14.5839 92.7273 14.4476C92.9489 14.3055 93.0597 14.0868 93.0597 13.7913V13.7402C93.0597 13.0981 92.8693 12.601 92.4887 12.2487C92.108 11.8964 91.5597 11.7203 90.8438 11.7203C90.0881 11.7203 89.4887 11.8851 89.0455 12.2146C88.608 12.5442 88.3125 12.9334 88.1591 13.3822L85.2784 12.9731C85.5057 12.1777 85.8807 11.5129 86.4034 10.9788C86.9262 10.439 87.5654 10.0356 88.3211 9.76859C89.0767 9.49586 89.912 9.3595 90.8267 9.3595C91.4574 9.3595 92.0853 9.43336 92.7103 9.58109C93.3353 9.72881 93.9063 9.97313 94.4233 10.314C94.9404 10.6493 95.3551 11.1067 95.6676 11.6862C95.9858 12.2657 96.1449 12.9902 96.1449 13.8595V22.6209H93.179V20.8226H93.0767C92.8892 21.1862 92.625 21.5271 92.2841 21.8453C91.9489 22.1578 91.5256 22.4106 91.0142 22.6038C90.5085 22.7913 89.9148 22.8851 89.233 22.8851ZM90.0341 20.618C90.6534 20.618 91.1904 20.4959 91.6449 20.2515C92.0995 20.0015 92.4489 19.672 92.6932 19.2629C92.9432 18.8538 93.0682 18.4078 93.0682 17.9248V16.3822C92.9716 16.4618 92.8068 16.5356 92.5739 16.6038C92.3466 16.672 92.0909 16.7317 91.8068 16.7828C91.5228 16.8339 91.2415 16.8794 90.9631 16.9192C90.6847 16.9589 90.4432 16.993 90.2387 17.0214C89.7784 17.0839 89.3665 17.1862 89.0029 17.3282C88.6392 17.4703 88.3523 17.6692 88.1421 17.9248C87.9318 18.1748 87.8267 18.4987 87.8267 18.8964C87.8267 19.4646 88.0341 19.8936 88.4489 20.1834C88.8637 20.4731 89.3921 20.618 90.0341 20.618Z" fill="#F9FAFD"/>
<path d="M101.332 14.9504V22.6209H98.2471V9.52995H101.196V11.7544H101.349C101.65 11.0214 102.131 10.439 102.79 10.0072C103.454 9.57541 104.275 9.3595 105.253 9.3595C106.156 9.3595 106.943 9.55268 107.614 9.93904C108.29 10.3254 108.812 10.8851 109.182 11.618C109.557 12.351 109.741 13.2402 109.736 14.2856V22.6209H106.65V14.7629C106.65 13.8879 106.423 13.2032 105.969 12.7089C105.52 12.2146 104.898 11.9675 104.102 11.9675C103.562 11.9675 103.082 12.0868 102.662 12.3254C102.247 12.5584 101.92 12.8964 101.682 13.3396C101.449 13.7828 101.332 14.3197 101.332 14.9504Z" fill="#F9FAFD"/>
</svg>
