<svg width="185" height="36" viewBox="0 0 185 36" fill="none" xmlns="http://www.w3.org/2000/svg">
<path fill-rule="evenodd" clip-rule="evenodd" d="M11.3439 6.98287C11.5208 6.84652 11.7393 6.76261 11.9578 6.76261C12.2908 6.76261 12.6029 6.90945 12.8006 7.17167L18.7627 14.8705V21.017L20.5419 22.8001C20.9477 23.2091 20.9477 23.8804 20.5419 24.2895C20.1361 24.6986 19.4702 24.6986 19.0644 24.2895L16.6817 21.8771V15.5942L11.1566 8.4618V8.45132C10.8028 8.00029 10.8861 7.3395 11.3439 6.98287ZM23.72 23.5166C23.543 23.4723 23.3754 23.3803 23.2368 23.2406L21.1454 21.1324C20.9061 20.8911 20.802 20.566 20.8437 20.2618V14.1048H20.8124L14.8192 6.36403C14.6602 6.1614 14.5895 5.91642 14.6004 5.6757C13.9175 5.56016 13.2158 5.5 12.5 5.5C5.59644 5.5 0 11.0964 0 18C0 24.9036 5.59644 30.5 12.5 30.5C17.4234 30.5 21.682 27.6536 23.72 23.5166Z" fill="#05050A"/>
<path d="M35.7811 27V8.81818H39.0748V17.1722H39.2967L46.3901 8.81818H50.4118L43.3805 16.9769L50.4739 27H46.5144L41.0901 19.2053L39.0748 21.5845V27H35.7811ZM57.594 27.2663C56.2268 27.2663 55.046 26.9822 54.0517 26.4141C53.0633 25.84 52.3028 25.0291 51.7701 23.9815C51.2374 22.928 50.9711 21.6881 50.9711 20.2617C50.9711 18.859 51.2374 17.628 51.7701 16.5685C52.3087 15.5032 53.0604 14.6746 54.0251 14.0827C54.9898 13.485 56.1232 13.1861 57.4253 13.1861C58.2657 13.1861 59.0588 13.3222 59.8046 13.5945C60.5562 13.8608 61.2191 14.2751 61.7932 14.8374C62.3732 15.3996 62.8289 16.1158 63.1604 16.9858C63.4918 17.8499 63.6575 18.8797 63.6575 20.0753V21.0607H52.4803V18.8945H60.5769C60.571 18.279 60.4378 17.7315 60.1774 17.2521C59.917 16.7668 59.553 16.3851 59.0854 16.1069C58.6238 15.8287 58.0852 15.6896 57.4697 15.6896C56.8127 15.6896 56.2357 15.8494 55.7385 16.169C55.2413 16.4827 54.8537 16.897 54.5755 17.4119C54.3033 17.9209 54.1642 18.4802 54.1582 19.0898V20.9808C54.1582 21.7739 54.3033 22.4545 54.5933 23.0227C54.8833 23.585 55.2887 24.017 55.8095 24.3189C56.3304 24.6148 56.94 24.7628 57.6384 24.7628C58.1059 24.7628 58.5291 24.6977 58.9079 24.5675C59.2867 24.4313 59.6152 24.2331 59.8933 23.9727C60.1715 23.7122 60.3816 23.3897 60.5237 23.005L63.5244 23.3423C63.335 24.1354 62.9739 24.8279 62.4413 25.4197C61.9145 26.0057 61.2398 26.4614 60.4171 26.7869C59.5944 27.1065 58.6534 27.2663 57.594 27.2663ZM67.9833 32.1136C67.5453 32.1136 67.1399 32.0781 66.767 32.0071C66.4001 31.942 66.1071 31.8651 65.8881 31.7763L66.6338 29.2727C67.1014 29.4089 67.5187 29.474 67.8856 29.468C68.2526 29.4621 68.5751 29.3467 68.8533 29.1218C69.1374 28.9028 69.3771 28.5359 69.5724 28.021L69.8476 27.2841L64.9027 13.3636H68.3117L71.4545 23.6619H71.5965L74.7482 13.3636H78.1661L72.7063 28.6513C72.4518 29.3733 72.1144 29.9918 71.6942 30.5067C71.274 31.0276 70.7591 31.4241 70.1495 31.6964C69.5458 31.9746 68.8237 32.1136 67.9833 32.1136ZM83.2043 27L79.3513 13.3636H82.6273L85.0243 22.9517H85.1486L87.5989 13.3636H90.8393L93.2896 22.8984H93.4227L95.7842 13.3636H99.069L95.2072 27H91.8602L89.3034 17.7848H89.117L86.5601 27H83.2043ZM106.87 27.2663C105.539 27.2663 104.385 26.9734 103.408 26.3874C102.432 25.8015 101.674 24.9818 101.135 23.9283C100.603 22.8748 100.336 21.6437 100.336 20.2351C100.336 18.8265 100.603 17.5924 101.135 16.533C101.674 15.4736 102.432 14.6509 103.408 14.065C104.385 13.479 105.539 13.1861 106.87 13.1861C108.202 13.1861 109.356 13.479 110.333 14.065C111.309 14.6509 112.064 15.4736 112.597 16.533C113.135 17.5924 113.405 18.8265 113.405 20.2351C113.405 21.6437 113.135 22.8748 112.597 23.9283C112.064 24.9818 111.309 25.8015 110.333 26.3874C109.356 26.9734 108.202 27.2663 106.87 27.2663ZM106.888 24.6918C107.61 24.6918 108.214 24.4935 108.699 24.0969C109.185 23.6945 109.546 23.1559 109.782 22.4812C110.025 21.8065 110.146 21.0548 110.146 20.2262C110.146 19.3917 110.025 18.6371 109.782 17.9624C109.546 17.2817 109.185 16.7402 108.699 16.3377C108.214 15.9353 107.61 15.734 106.888 15.734C106.148 15.734 105.533 15.9353 105.042 16.3377C104.556 16.7402 104.192 17.2817 103.95 17.9624C103.713 18.6371 103.595 19.3917 103.595 20.2262C103.595 21.0548 103.713 21.8065 103.95 22.4812C104.192 23.1559 104.556 23.6945 105.042 24.0969C105.533 24.4935 106.148 24.6918 106.888 24.6918ZM116.132 27V13.3636H119.248V15.6364H119.39C119.639 14.8492 120.065 14.2425 120.669 13.8164C121.278 13.3844 121.974 13.1683 122.755 13.1683C122.933 13.1683 123.131 13.1772 123.35 13.195C123.575 13.2068 123.761 13.2275 123.909 13.2571V16.2134C123.773 16.1661 123.557 16.1246 123.261 16.0891C122.971 16.0477 122.69 16.027 122.418 16.027C121.832 16.027 121.305 16.1542 120.837 16.4087C120.376 16.6573 120.012 17.0036 119.746 17.4474C119.479 17.8913 119.346 18.4033 119.346 18.9833V27H116.132ZM130.543 27.2397C129.472 27.2397 128.513 26.9645 127.667 26.4141C126.82 25.8636 126.152 25.0646 125.66 24.017C125.169 22.9695 124.924 21.697 124.924 20.1996C124.924 18.6844 125.172 17.406 125.669 16.3643C126.172 15.3168 126.85 14.5266 127.702 13.994C128.555 13.4554 129.504 13.1861 130.552 13.1861C131.351 13.1861 132.008 13.3222 132.523 13.5945C133.038 13.8608 133.446 14.1834 133.748 14.5621C134.05 14.935 134.284 15.2872 134.449 15.6186H134.583V8.81818H137.805V27H134.645V24.8516H134.449C134.284 25.183 134.044 25.5352 133.73 25.908C133.417 26.275 133.002 26.5887 132.487 26.8491C131.973 27.1095 131.324 27.2397 130.543 27.2397ZM131.44 24.603C132.12 24.603 132.701 24.4195 133.18 24.0526C133.659 23.6797 134.023 23.1618 134.272 22.4989C134.52 21.8361 134.645 21.0637 134.645 20.1818C134.645 19.3 134.52 18.5335 134.272 17.8825C134.029 17.2314 133.668 16.7254 133.189 16.3643C132.715 16.0033 132.132 15.8228 131.44 15.8228C130.724 15.8228 130.126 16.0092 129.647 16.3821C129.167 16.755 128.806 17.2699 128.563 17.9268C128.321 18.5838 128.199 19.3355 128.199 20.1818C128.199 21.0341 128.321 21.7946 128.563 22.4634C128.812 23.1263 129.176 23.6501 129.655 24.0348C130.141 24.4136 130.736 24.603 131.44 24.603ZM152.008 16.968L149.078 17.2876C148.995 16.9917 148.85 16.7135 148.643 16.4531C148.442 16.1927 148.169 15.9826 147.826 15.8228C147.483 15.663 147.063 15.5831 146.565 15.5831C145.897 15.5831 145.334 15.7281 144.879 16.0181C144.429 16.3081 144.207 16.6839 144.213 17.1456C144.207 17.5421 144.352 17.8647 144.648 18.1133C144.95 18.3619 145.447 18.5661 146.139 18.7259L148.465 19.223C149.756 19.5012 150.714 19.9421 151.342 20.5458C151.975 21.1495 152.295 21.9396 152.301 22.9162C152.295 23.7744 152.043 24.532 151.546 25.1889C151.055 25.84 150.371 26.349 149.495 26.7159C148.619 27.0829 147.613 27.2663 146.477 27.2663C144.808 27.2663 143.464 26.9171 142.446 26.2188C141.428 25.5144 140.822 24.5349 140.626 23.2802L143.76 22.9783C143.902 23.5939 144.204 24.0585 144.666 24.3722C145.127 24.6858 145.728 24.8427 146.468 24.8427C147.231 24.8427 147.844 24.6858 148.306 24.3722C148.773 24.0585 149.007 23.6708 149.007 23.2092C149.007 22.8185 148.856 22.496 148.554 22.2415C148.258 21.987 147.797 21.7917 147.169 21.6555L144.843 21.1673C143.535 20.895 142.567 20.4363 141.94 19.7912C141.313 19.1402 141.002 18.3175 141.008 17.3232C141.002 16.4827 141.23 15.7547 141.692 15.1392C142.159 14.5178 142.807 14.0384 143.636 13.701C144.47 13.3577 145.432 13.1861 146.521 13.1861C148.119 13.1861 149.377 13.5264 150.294 14.207C151.217 14.8877 151.789 15.808 152.008 16.968ZM163.629 27H160.113L166.514 8.81818H170.58L176.99 27H173.474L168.618 12.5469H168.476L163.629 27ZM163.744 19.8711H173.332V22.5167H163.744V19.8711ZM182.678 8.81818V27H179.385V8.81818H182.678Z" fill="#05050A"/>
</svg>
